<?xml version="1.0" standalone="no"?>
<!DOCTYPE svg PUBLIC "-//W3C//DTD SVG 20010904//EN"
 "http://www.w3.org/TR/2001/REC-SVG-20010904/DTD/svg10.dtd">
<svg version="1.0" xmlns="http://www.w3.org/2000/svg"
 width="431.000000pt" height="415.000000pt" viewBox="0 0 431.000000 415.000000"
 preserveAspectRatio="xMidYMid meet">

<g transform="translate(0.000000,415.000000) scale(0.100000,-0.100000)"
fill="#000000" stroke="none">
<path d="M865 3512 c28 -26 90 -83 140 -127 49 -44 112 -101 140 -126 45 -42
81 -73 154 -134 13 -11 50 -42 80 -70 31 -27 95 -84 141 -125 47 -41 107 -95
135 -120 27 -25 70 -63 94 -85 25 -22 58 -53 75 -69 17 -15 71 -63 120 -105
49 -42 115 -98 146 -126 30 -27 91 -81 135 -120 76 -66 123 -109 225 -202 25
-23 57 -51 73 -63 l27 -21 0 -495 0 -494 -302 2 -303 3 -3 416 -2 417 -133
117 c-72 64 -161 142 -197 173 -35 31 -76 68 -91 82 -30 28 -34 31 -244 219
-82 73 -167 149 -187 167 -20 19 -40 34 -43 34 -3 0 -22 17 -44 38 -21 20 -65
60 -97 88 -92 79 -254 223 -311 276 -28 26 -57 48 -62 48 -8 0 -11 -292 -11
-965 l0 -964 112 -118 c62 -65 193 -203 293 -307 99 -104 186 -197 193 -207
13 -18 55 -19 1283 -19 l1269 0 0 1515 0 1515 -1427 0 -1428 0 50 -48z"/>
</g>
</svg>
